<svg width="40" height="40" viewBox="0 0 40 40" fill="none" xmlns="http://www.w3.org/2000/svg">
<path d="M38.125 19.8876C38.1494 23.0542 37.3398 26.1714 35.7774 28.9259C35.575 29.2837 35.3607 29.6337 35.1344 29.9759C35.0225 30.1498 34.8772 30.2998 34.7069 30.4171C34.5367 30.5345 34.3448 30.6169 34.1424 30.6595C33.94 30.7021 33.7312 30.7041 33.5281 30.6655C33.3249 30.6268 33.1315 30.5482 32.9589 30.4341C32.7864 30.3201 32.6382 30.173 32.523 30.0013C32.4077 29.8296 32.3277 29.6367 32.2875 29.4338C32.2474 29.231 32.2479 29.0222 32.2891 28.8195C32.3303 28.6168 32.4113 28.4243 32.5274 28.2532C34.0185 25.9897 34.8685 23.3644 34.987 20.6564C35.1054 17.9484 34.4879 15.2589 33.2001 12.8738C31.9123 10.4887 30.0022 8.49708 27.673 7.11069C25.3438 5.7243 22.6825 4.99493 19.9719 5.0001C14.7618 5.01026 10.1422 7.74541 7.45706 11.8321C5.85189 14.2703 4.99772 17.1259 5.0005 20.045C5.00327 22.9641 5.86288 25.8182 7.47269 28.2532C7.70092 28.5991 7.78239 29.0216 7.69917 29.4275C7.61595 29.8335 7.37486 30.1898 7.02894 30.4181C6.68302 30.6463 6.2606 30.7278 5.85461 30.6445C5.44863 30.5613 5.09233 30.3202 4.8641 29.9743C3.0791 27.2655 2.05381 24.1272 1.89521 20.887C1.73662 17.6468 2.45053 14.4235 3.96245 11.5533C5.47437 8.68306 7.72889 6.27121 10.4907 4.56941C13.2526 2.86761 16.4206 1.93822 19.6641 1.87822C19.7782 1.87588 19.8914 1.8751 20.0047 1.8751C24.7949 1.86523 29.3933 3.75637 32.7905 7.13341C36.1878 10.5105 38.1063 15.0975 38.125 19.8876V19.8876Z" fill="#494D4B"/>
<path d="M36.1477 27.0875L35.7774 28.9258C35.575 29.2836 35.3607 29.6336 35.1344 29.9758C35.0225 30.1497 34.8772 30.2997 34.7069 30.4171C34.5366 30.5344 34.3448 30.6168 34.1424 30.6594C33.94 30.702 33.7312 30.7041 33.5281 30.6654C33.3249 30.6267 33.1315 30.5481 32.9589 30.4341C32.7864 30.3201 32.6382 30.1729 32.5229 30.0012C32.4077 29.8295 32.3277 29.6366 32.2875 29.4338C32.2474 29.2309 32.2479 29.0221 32.2891 28.8194C32.3303 28.6167 32.4112 28.4243 32.5274 28.2531C33.5865 26.6502 34.3258 24.8577 34.7047 22.9742C35.2927 23.4668 35.7371 24.1089 35.991 24.8327C36.245 25.5566 36.2991 26.3355 36.1477 27.0875Z" fill="#8AE4B9"/>
<path d="M3.84744 27.0875L4.21776 28.9258C4.4201 29.2836 4.63442 29.6336 4.86072 29.9758C4.97261 30.1497 5.11791 30.2997 5.28819 30.4171C5.45848 30.5344 5.65036 30.6168 5.85273 30.6594C6.05509 30.702 6.2639 30.7041 6.46705 30.6654C6.6702 30.6267 6.86366 30.5481 7.0362 30.4341C7.20874 30.3201 7.35692 30.1729 7.47217 30.0012C7.58742 29.8295 7.66744 29.6366 7.70758 29.4338C7.74773 29.2309 7.7472 29.0221 7.70603 28.8194C7.66486 28.6167 7.58387 28.4243 7.46776 28.2531C6.40861 26.6502 5.66927 24.8577 5.29041 22.9742C4.70237 23.4668 4.258 24.1089 4.00407 24.8327C3.75014 25.5566 3.69603 26.3355 3.84744 27.0875Z" fill="#8AE4B9"/>
<path d="M11.8439 36.5641L11.1259 36.7086C10.0591 36.9234 8.95051 36.7225 8.0269 36.147C7.10328 35.5715 6.43445 34.6648 6.15718 33.6125C6.13609 33.5313 6.11656 33.45 6.10015 33.3672L5.07125 28.2555C4.84827 27.1459 5.07497 25.9931 5.70153 25.0506C6.32808 24.108 7.30323 23.4528 8.41265 23.2289L9.13062 23.0844L10.39 29.3406L11.8439 36.5641Z" fill="#494D4B"/>
<path d="M34.9289 28.2555L33.9 33.3672C33.6766 34.4767 33.0216 35.4521 32.0791 36.0787C31.1366 36.7054 29.9838 36.9319 28.8742 36.7086L28.1562 36.5641L28.9 32.8711L30.8695 23.0844L31.5875 23.2289C32.6968 23.4531 33.672 24.108 34.2992 25.05C34.3856 25.1799 34.4646 25.3144 34.5359 25.4531C34.9817 26.3154 35.1203 27.3038 34.9289 28.2555V28.2555Z" fill="#494D4B"/>
<path d="M11.8437 36.5641L11.1257 36.7086C10.0589 36.9234 8.95031 36.7225 8.02669 36.147C7.10308 35.5715 6.43425 34.6649 6.15698 33.6125C7.67436 32.2981 9.08939 30.87 10.3898 29.3407L11.8437 36.5641Z" fill="#808080"/>
<path d="M28.1563 36.5641L28.8743 36.7086C29.9411 36.9234 31.0497 36.7225 31.9733 36.147C32.8969 35.5715 33.5658 34.6649 33.843 33.6125C32.3256 32.2981 30.9106 30.87 29.6102 29.3407L28.1563 36.5641Z" fill="#808080"/>
<path d="M9.06588 22.7944L11.8978 36.8819C12.0678 37.7276 12.8911 38.2753 13.7368 38.1053C14.5825 37.9353 15.1303 37.1119 14.9603 36.2663L12.1284 22.1788C11.9584 21.3331 11.135 20.7853 10.2893 20.9553C9.44363 21.1253 8.89588 21.9487 9.06588 22.7944Z" fill="#8AE4B9"/>
<path d="M27.8462 22.1635L25.0144 36.251C24.8444 37.0967 25.3921 37.9201 26.2378 38.0901C27.0835 38.2601 27.9069 37.7123 28.0769 36.8666L30.9087 22.7791C31.0787 21.9335 30.531 21.1101 29.6853 20.9401C28.8396 20.7701 28.0162 21.3178 27.8462 22.1635Z" fill="#8AE4B9"/>
<path d="M34.8866 8.36826C35.1196 8.66681 35.0934 9.09224 34.8256 9.36003L32.5842 11.6014C32.4299 11.7558 32.2159 11.8352 31.9982 11.819C31.7805 11.8028 31.5807 11.6926 31.4509 11.517C30.1242 9.72302 28.3941 8.26624 26.4004 7.26441C24.4067 6.26259 22.2052 5.74381 19.974 5.75001L19.9733 5.75001C15.0304 5.75965 10.6391 8.3548 8.08384 12.2439C7.95997 12.4324 7.75783 12.5552 7.53343 12.5781C7.30903 12.6011 7.08621 12.5219 6.9267 12.3624L4.65326 10.0889C4.39543 9.8311 4.36039 9.42518 4.57025 9.12698C6.27731 6.70123 8.53274 4.71257 11.1532 3.32269C13.7733 1.93298 16.6843 1.18114 19.6497 1.12828C19.65 1.12827 19.6504 1.12826 19.6507 1.12826L19.6641 1.87814C19.7781 1.8758 19.8914 1.87501 20.0047 1.87501L34.8866 8.36826ZM34.8866 8.36826C33.1215 6.10675 30.863 4.27852 28.2835 3.02318C25.7043 1.76796 22.8723 1.11872 20.0039 1.12501L34.8866 8.36826Z" fill="#6489E8" stroke="#6489E8" stroke-width="1.5" stroke-linejoin="round"/>
</svg>
