<svg width="40" height="40" viewBox="0 0 40 40" xmlns="http://www.w3.org/2000/svg"><path d="M38.125 19.888a18.037 18.037 0 01-2.99 10.088 1.562 1.562 0 11-2.608-1.723A15.002 15.002 0 0019.972 5c-5.21.01-9.83 2.745-12.515 6.832a14.91 14.91 0 00.016 16.421 1.563 1.563 0 01-2.609 1.721 18.126 18.126 0 0115.14-28.099 18.083 18.083 0 0118.121 18.013z" fill="#494d4b"/><path d="M36.148 27.087l-.37 1.839c-.203.358-.417.708-.644 1.05a1.564 1.564 0 01-2.845-1.157c.041-.202.122-.395.238-.566a14.91 14.91 0 002.178-5.279 4.267 4.267 0 011.443 4.113zM3.847 27.087l.37 1.839c.203.358.417.708.644 1.05a1.564 1.564 0 002.847-.542 1.563 1.563 0 00-.24-1.18 14.908 14.908 0 01-2.178-5.28 4.267 4.267 0 00-1.443 4.113z" class="prefix__hinge"/><path d="M11.844 36.564l-.718.145A4.267 4.267 0 016.1 33.367l-1.029-5.111a4.27 4.27 0 013.342-5.027l.718-.145 1.259 6.257 1.454 7.223zM34.929 28.256L33.9 33.367a4.268 4.268 0 01-5.026 3.342l-.718-.145.744-3.693 1.97-9.787.717.145a4.275 4.275 0 012.949 2.224 4.27 4.27 0 01.393 2.803z" class="prefix__ear"/><path d="M11.844 36.564l-.718.145a4.267 4.267 0 01-4.969-3.097 39.532 39.532 0 004.233-4.271l1.454 7.223zM28.156 36.564l.718.145a4.267 4.267 0 004.969-3.097 39.53 39.53 0 01-4.233-4.271l-1.454 7.223z" class="prefix__ear-detail"/><path d="M9.066 22.794l2.832 14.088a1.562 1.562 0 103.062-.616L12.128 22.18a1.562 1.562 0 00-3.062.615zM27.846 22.163l-2.832 14.088a1.562 1.562 0 103.063.616l2.832-14.088a1.562 1.562 0 10-3.063-.616z" class="prefix__ear-puff"/><path d="M34.826 9.36a.75.75 0 00.06-.992 18.827 18.827 0 00-6.603-5.345c-2.579-1.255-5.765-1.901-8.633-1.895A18.85 18.85 0 004.57 9.127a.75.75 0 00.083.962l2.274 2.273a.75.75 0 001.157-.118c2.555-3.89 6.947-6.484 11.89-6.494a14.225 14.225 0 0111.477 5.767.75.75 0 001.133.084l2.242-2.241z" stroke-width="1.5" stroke-linejoin="round" fill="#6489e8" stroke="#6489e8"/><style>.prefix__ear-puff,.prefix__hinge{fill:#8ae4b9}.prefix__ear{fill:#494d4b}.prefix__ear-detail{fill:gray}@media (prefers-color-scheme:light){path{fill:#8ae4b9;stroke:#8ae4b9;stroke-width:0}}</style></svg>