<svg width="163" height="42" viewBox="0 0 163 42" fill="#494D4B" xmlns="http://www.w3.org/2000/svg"><path d="M58.208 31V14.2h7.08c.992 0 1.88.24 2.664.72a5.08 5.08 0 011.896 1.92c.48.8.72 1.704.72 2.712 0 1.04-.24 1.976-.72 2.808a5.452 5.452 0 01-1.896 1.968c-.784.48-1.672.72-2.664.72h-3.624V31h-3.456zm3.432-9.096h3.288c.592 0 1.088-.216 1.488-.648.416-.448.624-1 .624-1.656 0-.656-.208-1.192-.624-1.608a1.946 1.946 0 00-1.488-.648H61.64v4.56zM78.959 31.24c-1.296 0-2.448-.28-3.456-.84a6.326 6.326 0 01-2.376-2.352c-.576-.992-.864-2.128-.864-3.408 0-1.264.288-2.392.864-3.384a6.152 6.152 0 012.376-2.328c1.008-.576 2.16-.864 3.456-.864 1.264 0 2.4.288 3.408.864a6.152 6.152 0 012.376 2.328c.576.992.864 2.12.864 3.384 0 1.28-.288 2.416-.864 3.408a6.326 6.326 0 01-2.376 2.352c-1.008.56-2.144.84-3.408.84zm0-2.856c.64 0 1.216-.16 1.728-.48a3.301 3.301 0 001.176-1.344c.288-.56.432-1.2.432-1.92s-.144-1.36-.432-1.92c-.272-.56-.664-1-1.176-1.32a3.193 3.193 0 00-1.728-.48c-.656 0-1.24.16-1.752.48-.512.32-.912.76-1.2 1.32-.288.56-.432 1.2-.432 1.92s.144 1.36.432 1.92a3.48 3.48 0 001.2 1.344c.512.32 1.096.48 1.752.48zM93.212 31.24c-1.12 0-2.12-.28-3-.84-.88-.576-1.576-1.36-2.088-2.352-.496-.992-.744-2.12-.744-3.384 0-1.28.248-2.416.744-3.408.512-.992 1.208-1.768 2.088-2.328.88-.576 1.88-.864 3-.864.768 0 1.496.152 2.184.456.704.304 1.272.696 1.704 1.176V13.24h3.288V31h-3.12l-.048-1.512c-.416.496-.984.912-1.704 1.248a5.382 5.382 0 01-2.304.504zm.72-2.736c.976 0 1.768-.352 2.376-1.056.608-.72.912-1.648.912-2.784 0-1.152-.304-2.08-.912-2.784-.608-.72-1.4-1.08-2.376-1.08s-1.768.36-2.376 1.08c-.608.704-.912 1.632-.912 2.784 0 1.136.304 2.064.912 2.784.608.704 1.4 1.056 2.376 1.056zM109.208 31.24c-1.2 0-2.28-.288-3.24-.864a6.37 6.37 0 01-2.256-2.352c-.544-.992-.816-2.12-.816-3.384 0-1.248.272-2.368.816-3.36a6.37 6.37 0 012.256-2.352c.96-.576 2.04-.864 3.24-.864 1.136 0 2.168.208 3.096.624.944.416 1.68 1 2.208 1.752l-1.8 2.16c-.336-.464-.8-.856-1.392-1.176-.592-.336-1.192-.504-1.8-.504a3.28 3.28 0 00-1.8.504c-.512.32-.92.76-1.224 1.32-.288.56-.432 1.192-.432 1.896s.152 1.336.456 1.896c.304.56.72 1.008 1.248 1.344.528.32 1.12.48 1.776.48.624 0 1.2-.136 1.728-.408a5.055 5.055 0 001.44-1.2l1.8 2.16c-.544.704-1.296 1.272-2.256 1.704a7.584 7.584 0 01-3.048.624zM121.472 31.24a4.967 4.967 0 01-2.856-.864c-.848-.576-1.528-1.36-2.04-2.352-.496-.992-.744-2.12-.744-3.384 0-1.296.248-2.432.744-3.408.512-.992 1.2-1.768 2.064-2.328.88-.56 1.872-.84 2.976-.84.896 0 1.68.184 2.352.552a4.404 4.404 0 011.608 1.392v-1.68h3.264V31h-3.288v-1.704c-.448.56-1.032 1.024-1.752 1.392a4.948 4.948 0 01-2.328.552zm.888-2.856c.976 0 1.768-.344 2.376-1.032.608-.688.912-1.592.912-2.712s-.304-2.024-.912-2.712c-.608-.688-1.4-1.032-2.376-1.032-.96 0-1.744.344-2.352 1.032-.592.688-.888 1.592-.888 2.712s.296 2.024.888 2.712c.608.688 1.392 1.032 2.352 1.032zM136.531 31.24c-1.168 0-2.208-.192-3.12-.576-.912-.384-1.648-.928-2.208-1.632l2.064-1.752a4.36 4.36 0 001.632 1.152 5.309 5.309 0 001.848.336c.496 0 .896-.112 1.2-.336.304-.224.456-.536.456-.936a.984.984 0 00-.432-.84c-.288-.192-.976-.432-2.064-.72-1.616-.416-2.76-.984-3.432-1.704-.592-.64-.888-1.432-.888-2.376 0-.752.224-1.408.672-1.968.448-.576 1.04-1.024 1.776-1.344a5.954 5.954 0 012.4-.48 7.49 7.49 0 012.808.528c.88.352 1.616.832 2.208 1.44l-1.776 1.944a5.88 5.88 0 00-1.56-1.032c-.576-.288-1.112-.432-1.608-.432-1.152 0-1.728.4-1.728 1.2.016.384.192.688.528.912.32.224 1.048.488 2.184.792 1.52.4 2.592.928 3.216 1.584.544.56.816 1.304.816 2.232 0 .768-.224 1.456-.672 2.064-.432.608-1.024 1.088-1.776 1.44-.752.336-1.6.504-2.544.504zM145.249 31v-9.72h-2.4v-2.952h2.4v-3.24h3.264v3.24h2.664v2.952h-2.664V31h-3.264zM153.376 31V18.328h3.168l.048 2.088a5.12 5.12 0 011.632-1.68c.688-.448 1.408-.672 2.16-.672.288 0 .552.024.792.072.256.032.472.08.648.144l-.888 3.6a2.712 2.712 0 00-.672-.24 3.552 3.552 0 00-.816-.096c-.784 0-1.448.272-1.992.816-.528.528-.792 1.2-.792 2.016V31h-3.288zM38.125 21.888a18.037 18.037 0 01-2.99 10.088 1.562 1.562 0 11-2.608-1.723A15.002 15.002 0 0019.972 7c-5.21.01-9.83 2.745-12.515 6.832a14.91 14.91 0 00.016 16.421 1.563 1.563 0 01-2.609 1.721 18.126 18.126 0 0115.14-28.099 18.083 18.083 0 0118.121 18.013z"/><path d="M36.148 29.087l-.37 1.839c-.203.358-.417.708-.644 1.05a1.564 1.564 0 01-2.845-1.157c.041-.202.122-.395.238-.566a14.91 14.91 0 002.178-5.279 4.267 4.267 0 011.443 4.113zM3.847 29.087l.37 1.839c.203.358.417.708.644 1.05a1.564 1.564 0 002.847-.542 1.563 1.563 0 00-.24-1.18 14.908 14.908 0 01-2.178-5.28 4.267 4.267 0 00-1.443 4.113z" fill="#8AE4B9"/><path d="M11.844 38.564l-.718.145A4.267 4.267 0 016.1 35.367l-1.029-5.111a4.27 4.27 0 013.342-5.027l.718-.145 1.259 6.257 1.454 7.223zM34.929 30.256L33.9 35.367a4.268 4.268 0 01-5.026 3.342l-.718-.145.744-3.693 1.97-9.787.717.145a4.275 4.275 0 012.949 2.224 4.27 4.27 0 01.393 2.803z"/><path d="M11.844 38.564l-.718.145a4.267 4.267 0 01-4.969-3.097 39.532 39.532 0 004.233-4.271l1.454 7.223zM28.156 38.564l.718.145a4.267 4.267 0 004.969-3.097 39.529 39.529 0 01-4.233-4.271l-1.454 7.223z" fill="gray"/><path d="M9.066 24.794l2.832 14.088a1.562 1.562 0 103.062-.616L12.128 24.18a1.562 1.562 0 00-3.062.615zM27.846 24.163l-2.832 14.088a1.562 1.562 0 103.063.616l2.832-14.088a1.562 1.562 0 10-3.063-.616z" fill="#8AE4B9"/><path d="M34.826 11.36a.75.75 0 00.06-.992 18.827 18.827 0 00-6.603-5.345c-2.579-1.255-5.765-1.901-8.633-1.895a18.85 18.85 0 00-15.08 7.999.75.75 0 00.083.962l2.274 2.273a.75.75 0 001.157-.118c2.555-3.89 6.947-6.484 11.89-6.494a14.225 14.225 0 0111.477 5.767.75.75 0 001.133.084l2.242-2.241z" fill="#6489E8" stroke="#6489E8" stroke-width="1.5" stroke-linejoin="round"/></svg>