<svg width="33" height="32" viewBox="0 0 33 32" fill="none" xmlns="http://www.w3.org/2000/svg"><defs><linearGradient id="prefix__gradient" x1="0" y1="0" x2="1" y2="0" spreadMethod="repeat" gradientUnits="objectBoundingBox"><stop offset="45%" stop-color="#FFF"/><stop offset="52%" stop-color="#658BE7"/><stop offset="60%" stop-color="#FFF"/></linearGradient><clipPath id="prefix__playing-clipping-paths"><use href="#zaz" fill="#fff"/></clipPath><path id="zaz" fill-rule="evenodd" clip-rule="evenodd" d="M13.986 16.085c.537-.996 1.967-.966 2.47.037l.001.002 1.906 3.812.456-.913v-.002a1.783 1.783 0 011.597-.986H21.5a1 1 0 110 2h-.95l-.941 1.881-.001.002c-.512 1.026-1.978 1.026-2.49 0l-.001-.002-1.926-3.853-.56 1.036a1.787 1.787 0 01-1.57.936h-.977a1 1 0 110-2h.85l1.052-1.949z"/></defs><g id="prefix__playing-clip-group" clip-path="url(#prefix__playing-clipping-paths)"><path fill="url(#prefix__gradient)" style="animation:side-move 3000ms linear infinite alternate backwards" d="M0 0h33v32H0z"/></g><path d="M7.35 16H6.128a2.667 2.667 0 00-2.602 3.253l.903 4a2.667 2.667 0 002.601 2.08h1.595a.667.667 0 00.65-.813l-1.722-7.628c-1.337-5.924 3.167-11.559 9.24-11.559v0c6.073 0 10.577 5.635 9.24 11.559l-1.721 7.628a.666.666 0 00.65.813h1.594a2.667 2.667 0 002.601-2.08l.903-4A2.667 2.667 0 0027.457 16h-1.224" stroke="#658BE7" stroke-width="2" stroke-linecap="round" stroke-linejoin="round"/><style>@keyframes side-move{0%,30%{transform:translate(-10px,0)}70%,to{transform:translate(10px,0)}}</style></svg>